PathFileType	4	(X/Y/Z)	/Users/itak/Documents/Research/Walk-IL/dataset/trc/00485_00167.trc
DataRate	CameraRate	NumFrames	NumMarkers	Units	OrigDataRate	OrigDataStartFrame	OrigNumFrames
100.000000	100.000000	4	53	mm	100.000000	424	566
Frame#	Time	RPSI			LPSI			L3			STRN			T10			C7			CLAV			RBAK			LBAK			LSHO			LUPA			LAEL			LAOL			LWTS			LWPS			LFRA			LIFD			LHPS			RSHO			RUPA			RAEL			RAOL			RWTS			RWPS			RFRA			RIFD			RHTS			RHPS			RBHD			LFHD			RFHD			LBHD			LHIP			RHIP			RASI			LASI			LKNE			LTHI			LANK			LTIP			LTOE			LMT1			LMT5			LHEE			RKNE			RTHI			RANK			RTIP			RTOE			RMT1			RMT5			RHEE			LHTS			
		X1	Y1	Z1	X2	Y2	Z2	X3	Y3	Z3	X4	Y4	Z4	X5	Y5	Z5	X6	Y6	Z6	X7	Y7	Z7	X8	Y8	Z8	X9	Y9	Z9	X10	Y10	Z10	X11	Y11	Z11	X12	Y12	Z12	X13	Y13	Z13	X14	Y14	Z14	X15	Y15	Z15	X16	Y16	Z16	X17	Y17	Z17	X18	Y18	Z18	X19	Y19	Z19	X20	Y20	Z20	X21	Y21	Z21	X22	Y22	Z22	X23	Y23	Z23	X24	Y24	Z24	X25	Y25	Z25	X26	Y26	Z26	X27	Y27	Z27	X28	Y28	Z28	X29	Y29	Z29	X30	Y30	Z30	X31	Y31	Z31	X32	Y32	Z32	X33	Y33	Z33	X34	Y34	Z34	X35	Y35	Z35	X36	Y36	Z36	X37	Y37	Z37	X38	Y38	Z38	X39	Y39	Z39	X40	Y40	Z40	X41	Y41	Z41	X42	Y42	Z42	X43	Y43	Z43	X44	Y44	Z44	X45	Y45	Z45	X46	Y46	Z46	X47	Y47	Z47	X48	Y48	Z48	X49	Y49	Z49	X50	Y50	Z50	X51	Y51	Z51	X52	Y52	Z52	X53	Y53	Z53	

425	4.24	531.4312133789062	941.3848876953125	140.0940551757812	388.5809936523438	937.4813232421875	148.8237762451172	483.6914367675781	1044.996948242188	128.2918853759766	455.8734436035156	1240.089721679688	-146.5635833740234	492.2786560058594	1169.798706054688	138.6055603027344	517.7102661132812	1436.37890625	66.56491088867188	466.77880859375	1353.012451171875	-111.298698425293	611.7444458007812	1308.3740234375	113.5482635498047	421.3957824707031	1397.766357421875	115.0749969482422	328.6883544921875	1425.678100585938	25.70250511169434	220.6574859619141	1322.977783203125	58.19195175170898	146.3924560546875	1119.694946289062	61.70478820800781	224.4649810791016	1094.661743164062	125.5713272094727	140.1837158203125	909.0603637695312	-13.81555271148682	89.51571655273438	906.8754272460938	41.42182540893555	117.4146118164062	1034.7080078125	47.62032699584961	109.625617980957	749.3864135742188	-0.8684346675872803	76.40631866455078	829.0512084960938	38.77499389648438	658.1992797851562	1390.364624023438	-26.65768241882324	733.242431640625	1331.3798828125	-21.9238166809082	822.7620239257812	1061.785400390625	-44.85055160522461	791.9928588867188	1034.863525390625	9.292332649230957	791.25732421875	863.8638305664062	-164.5289306640625	859.239013671875	852.0887451171875	-109.3563003540039	839.698974609375	1006.065185546875	-56.36191558837891	819.82568359375	712.1995849609375	-187.2823791503906	814.3922119140625	773.0220336914062	-194.5860900878906	865.4049682617188	767.1494140625	-136.2844696044922	601.902587890625	1627.031127929688	-26.65386581420898	425.4210205078125	1658.388427734375	-129.2573089599609	554.2455444335938	1656.265625	-152.5910949707031	430.5664367675781	1633.767211914062	22.74251174926758	256.6728515625	847.8701782226562	8.271013259887695	659.0513305664062	845.0381469726562	4.362246513366699	587.96826171875	893.4257202148438	-89.12751770019531	334.5962829589844	893.1503295898438	-83.14128875732422	250.3520050048828	447.9189147949219	-105.4493789672852	244.7631530761719	600.2974853515625	-108.2994384765625	226.1721343994141	214.1393432617188	256.6108093261719	225.3822021484375	343.8585205078125	14.46891784667969	306.68212890625	45.38666534423828	102.825439453125	331.9112243652344	109.5569839477539	149.7072906494141	222.2899169921875	99.98645782470703	152.9002990722656	290.5985107421875	252.4827423095703	279.7389221191406	621.7327880859375	464.8936767578125	-93.30865478515625	663.5887451171875	720.5265502929688	-61.44966888427734	618.2938842773438	32.91043090820312	-36.02758407592773	629.1017456054688	319.4963073730469	-97.1279296875	570.9248657226562	43.12829208374023	-255.142578125	535.62890625	50.05757522583008	-190.5953826904297	643.4364013671875	39.32544326782227	-168.5697326660156	572.4375610351562	29.36038970947266	28.26112937927246	116.5187225341797	824.5872192382812	-22.45598220825195	
426	4.25	533.527587890625	941.6826171875	135.5182342529297	390.670654296875	938.2185668945312	144.2325134277344	486.5369567871094	1045.456176757812	124.2209777832031	457.2965087890625	1241.386474609375	-150.524658203125	495.8293151855469	1170.419555664062	134.1204833984375	521.2202758789062	1437.1044921875	62.19401931762695	468.4827270507812	1354.302124023438	-115.1618041992188	615.6467895507812	1308.990966796875	108.2339019775391	425.5782165527344	1398.5185546875	111.7704086303711	331.8609619140625	1426.677856445312	23.61534309387207	224.6319122314453	1323.442626953125	57.46865081787109	151.4114532470703	1119.7060546875	61.05321884155273	230.5647888183594	1094.483642578125	123.4970855712891	146.0691070556641	910.4009399414062	-17.38495254516602	95.80291748046875	907.0972900390625	38.21554946899414	122.9437789916992	1034.646118164062	46.15919876098633	114.582145690918	750.9131469726562	-8.213336944580078	82.15331268310547	829.7046508789062	33.72013092041016	660.7821044921875	1391.139892578125	-32.31919860839844	735.7601318359375	1332.095336914062	-28.71991348266602	825.001220703125	1062.94873046875	-54.88877487182617	794.4849853515625	1035.151733398438	-1.03287410736084	793.5111694335938	867.1460571289062	-177.5572052001953	861.5466918945312	854.6609497070312	-122.681266784668	841.9591674804688	1007.413879394531	-67.32538604736328	823.6376953125	716.0972290039062	-203.3904876708984	817.5797729492188	777.0286254882812	-209.5899658203125	868.5614013671875	770.4338989257812	-151.3495483398438	605.0921630859375	1627.365844726562	-31.09537124633789	428.2802429199219	1659.784301757812	-132.8185577392578	556.951171875	1657.147094726562	-156.741943359375	434.0506896972656	1634.733642578125	19.04768562316895	258.7225952148438	849.6829833984375	2.795673131942749	661.0104370117188	845.113525390625	0.116165965795517	590.557373046875	893.8910522460938	-93.69927978515625	337.5599060058594	894.7456665039062	-87.548828125	252.2101593017578	451.3029174804688	-116.6655960083008	246.4903717041016	603.841552734375	-117.6853942871094	234.0918121337891	212.6394805908203	242.1330108642578	229.1714782714844	345.7000732421875	2.386215209960938	306.7985229492188	46.65192794799805	81.68704986572266	335.0894775390625	108.3219375610352	130.3198394775391	225.2696685791016	101.914680480957	135.2493896484375	299.7703552246094	248.9277954101562	265.0674133300781	622.766357421875	464.6403198242188	-94.97756958007812	664.9693603515625	720.4111328125	-65.27495574951172	618.2354125976562	33.01229095458984	-36.06612777709961	629.7315063476562	319.2160339355469	-98.12080383300781	570.9486694335938	43.04654312133789	-255.21240234375	535.7085571289062	50.05911636352539	-190.67431640625	643.50390625	39.26838684082031	-168.5846252441406	572.2780151367188	29.42354583740234	28.18231964111328	121.9390182495117	826.5806274414062	-27.84032249450684	
427	4.26	535.4343872070312	942.02685546875	131.0302429199219	392.5854187011719	938.9118041992188	139.7212524414062	489.2919921875	1046.024169921875	120.1463241577148	458.7482299804688	1242.655639648438	-154.3924865722656	499.2223510742188	1171.027709960938	129.73876953125	524.5494995117188	1437.831909179688	57.95808029174805	470.1861572265625	1355.580444335938	-118.9525604248047	619.3600463867188	1309.595825195312	103.074348449707	429.5285949707031	1399.269653320312	108.4715576171875	334.9051513671875	1427.711547851562	21.4149227142334	228.4614410400391	1323.959228515625	56.48445129394531	156.5581970214844	1119.636352539062	60.24235916137695	236.8855285644531	1094.326416015625	121.1431579589844	151.8324432373047	911.7000122070312	-21.00700187683105	102.2980194091797	907.19287109375	35.19834136962891	128.6131591796875	1034.5009765625	44.65570449829102	119.5647125244141	752.4234008789062	-15.41945552825928	88.15247344970703	830.2634887695312	28.97346115112305	663.2457885742188	1391.99951171875	-37.71493148803711	738.175537109375	1332.931640625	-35.18176651000977	826.999267578125	1064.154907226562	-64.43782043457031	796.5823974609375	1035.479614257812	-10.97218704223633	795.6517333984375	870.6570434570312	-190.3417205810547	863.4780883789062	857.2742919921875	-135.5144348144531	843.9476318359375	1008.803466796875	-77.79292297363281	827.1345825195312	720.2886962890625	-219.2935485839844	820.5869140625	781.307861328125	-224.3361968994141	871.2632446289062	773.8175659179688	-165.9688568115234	608.0558471679688	1627.785278320312	-35.47479248046875	430.8969421386719	1661.069702148438	-136.3177032470703	559.3848266601562	1657.97900390625	-160.8267059326172	437.3287658691406	1635.676025390625	15.38313579559326	260.6630249023438	851.4076538085938	-2.598530054092407	662.802734375	845.21435546875	-3.94499659538269	593.0228271484375	894.3071899414062	-98.15016174316406	340.3590698242188	896.2722778320312	-91.91053009033203	254.1194000244141	454.5129089355469	-127.5213317871094	248.2685241699219	607.33837890625	-126.8261032104492	241.742919921875	209.9525756835938	227.2759704589844	232.8821105957031	347.0751647949219	-9.616306304931641	307.5118713378906	47.64097595214844	60.38898849487305	338.4525756835938	106.7798080444336	110.6545486450195	228.5701751708984	102.9441986083984	117.3342132568359	308.4825134277344	244.3905639648438	250.0821685791016	623.7803344726562	464.4149169921875	-96.43724060058594	666.2685546875	720.3119506835938	-68.83427429199219	618.1798706054688	33.1041259765625	-36.10158538818359	630.3488159179688	318.9671325683594	-98.97449493408203	570.9779663085938	42.96957397460938	-255.2816314697266	535.7978515625	50.06724548339844	-190.75146484375	643.5784301757812	39.20726776123047	-168.5959930419922	572.08935546875	29.4691333770752	28.08534240722656	127.16796875	828.5303955078125	-33.11137390136719	
428	4.27	537.1882934570312	942.419189453125	126.6179809570312	394.3599853515625	939.5419921875	135.2887115478516	491.9729919433594	1046.637451171875	116.0546264648438	460.2322692871094	1243.884765625	-158.1972045898438	502.4666748046875	1171.600219726562	125.4398422241211	527.7090454101562	1438.536254882812	53.85048294067383	471.8944396972656	1356.818359375	-122.6862030029297	622.8858642578125	1310.165405273438	98.06392669677734	433.2425537109375	1399.992797851562	105.1697235107422	337.8136901855469	1428.743774414062	19.08759117126465	232.1133270263672	1324.493530273438	55.22060775756836	161.7828674316406	1119.465454101562	59.23696517944336	243.3350219726562	1094.18212890625	118.5243911743164	157.4524993896484	912.9008178710938	-24.67672157287598	108.9695510864258	907.1063842773438	32.3290901184082	134.3684234619141	1034.246215820312	43.06830215454102	124.6628875732422	753.8179931640625	-22.39140510559082	94.44300842285156	830.6325073242188	24.54240798950195	665.604248046875	1392.908935546875	-42.86176681518555	740.5048217773438	1333.842895507812	-41.31404113769531	828.7984008789062	1065.365844726562	-73.51994323730469	798.3677368164062	1035.82275390625	-20.51895904541016	797.6504516601562	874.3455200195312	-202.8554534912109	865.0455932617188	859.8680419921875	-147.8833160400391	845.7054443359375	1010.194641113281	-87.78829956054688	830.2051391601562	724.7355346679688	-234.9627685546875	823.3380126953125	785.8175048828125	-238.7936706542969	873.4713134765625	777.2302856445312	-180.1556701660156	610.8020629882812	1628.291381835938	-39.78957748413086	433.2691345214844	1662.23193359375	-139.7384796142578	561.555419921875	1658.773071289062	-164.8429870605469	440.4046325683594	1636.5732421875	11.77980709075928	262.4866943359375	853.00634765625	-7.886980056762695	664.4386596679688	845.3569946289062	-7.876082420349121	595.3383178710938	894.6888427734375	-102.4966430664062	342.9629821777344	897.7233276367188	-96.22988128662109	256.0592651367188	457.51171875	-138.00048828125	250.0801391601562	610.73583984375	-135.6841888427734	249.0402526855469	206.1549224853516	212.0442657470703	236.4587097167969	347.9780883789062	-21.5226993560791	308.824951171875	48.35815048217773	38.95672988891602	341.957275390625	104.9670944213867	90.74600982666016	232.1156005859375	103.1098785400391	99.14633178710938	316.6579895019531	238.9522247314453	234.8134765625	624.7763671875	464.2141723632812	-97.70295715332031	667.4935302734375	720.2455444335938	-72.18116760253906	618.1227416992188	33.18063354492188	-36.13194274902344	630.9602661132812	318.7508544921875	-99.69351196289062	571.0126342773438	42.89604568481445	-255.3501892089844	535.89501953125	50.08202743530273	-190.8218994140625	643.6570434570312	39.14401245117188	-168.6036987304688	571.8871459960938	29.51088905334473	27.98125839233398	132.2544555664062	830.3326416015625	-38.23849487304688	
